<svg width="38" height="50" viewBox="0 0 38 50" fill="none" xmlns="http://www.w3.org/2000/svg">
<path d="M27 8H3C2.20462 8.00089 1.44208 8.31725 0.879662 8.87966C0.317245 9.44208 0.000888668 10.2046 0 11V49C1.3107e-05 49.1837 0.0506452 49.3639 0.146339 49.5208C0.242034 49.6776 0.379091 49.8051 0.542467 49.8892C0.705843 49.9732 0.889223 50.0107 1.07248 49.9974C1.25574 49.9841 1.43178 49.9205 1.5813 49.8137L14.9982 40.229L28.4188 49.8137C28.5683 49.9205 28.7444 49.9841 28.9276 49.9974C29.1109 50.0107 29.2943 49.9732 29.4576 49.8892C29.621 49.8051 29.758 49.6776 29.8537 49.5208C29.9494 49.3639 30 49.1837 30 49V11C29.9991 10.2046 29.6828 9.44208 29.1203 8.87966C28.5579 8.31725 27.7954 8.00089 27 8ZM28 47.0569L15.5793 38.1863C15.4098 38.0651 15.2065 38 14.9981 38C14.7897 38 14.5865 38.0651 14.4169 38.1863L2 47.0566V11C2.00028 10.7349 2.10573 10.4807 2.29321 10.2932C2.48068 10.1057 2.73487 10.0003 3 10H27C27.2651 10.0003 27.5193 10.1057 27.7068 10.2932C27.8943 10.4807 27.9997 10.7349 28 11V47.0569ZM38 3V41C38 41.2652 37.8946 41.5196 37.7071 41.7071C37.5196 41.8946 37.2652 42 37 42C36.7348 42 36.4804 41.8946 36.2929 41.7071C36.1054 41.5196 36 41.2652 36 41V3C35.9997 2.73487 35.8943 2.48068 35.7068 2.29321C35.5193 2.10573 35.2651 2.00028 35 2H9C8.73478 2 8.48043 1.89464 8.29289 1.70711C8.10536 1.51957 8 1.26522 8 1C8 0.734784 8.10536 0.48043 8.29289 0.292893C8.48043 0.105357 8.73478 0 9 0H35C35.7954 0.000888668 36.5579 0.317245 37.1203 0.879661C37.6828 1.44208 37.9991 2.20462 38 3Z" fill="white"/>
</svg>
