<svg width="58" height="58" viewBox="0 0 58 58" fill="none" xmlns="http://www.w3.org/2000/svg">
<g filter="url(#filter0_d_163_43)">
<path d="M13.4755 32.5981C13.8065 32.5035 14.1619 32.5497 14.4577 32.7256C16.9463 34.2056 19.7888 34.9979 22.7504 34.9979C31.7245 34.9979 38.9994 27.7229 38.9994 18.7489C38.9994 9.77477 31.7245 2.49985 22.7504 2.49985C13.7763 2.49985 6.50138 9.77477 6.50138 18.7489C6.50138 21.7104 7.29368 24.553 8.77359 27.0415C8.94956 27.3374 8.99569 27.6927 8.90112 28.0238L7.07137 34.4279L13.4755 32.5981ZM40.696 13.3028C48.5209 15.673 53.9985 22.9193 53.9985 31.2481C53.9985 34.4761 53.1805 37.5871 51.6477 40.3443L53.9504 48.4036C54.2198 49.3465 53.348 50.2182 52.4052 49.9488L44.3459 47.6462C41.5886 49.1789 38.4776 49.9969 35.2496 49.9969C26.9289 49.9969 19.6785 44.5289 17.3044 36.6943C16.0368 36.3101 14.8141 35.7918 13.6541 35.147L5.59484 37.4496C4.65195 37.719 3.78023 36.8473 4.04962 35.9044L6.35228 27.8451C4.81952 25.0878 4.00153 21.9769 4.00153 18.7489C4.00153 8.39415 12.3957 0 22.7504 0C31.211 0 38.3628 5.60413 40.696 13.3028ZM41.3235 16.1712C41.4394 17.0138 41.4992 17.8743 41.4992 18.7489C41.4992 29.1036 33.1051 37.4977 22.7504 37.4977C21.8812 37.4977 21.0204 37.4384 20.1728 37.3218C22.6109 43.3788 28.5276 47.4971 35.2496 47.4971C38.2112 47.4971 41.0537 46.7048 43.5423 45.2249C43.8381 45.0489 44.1935 45.0028 44.5245 45.0974L50.9286 46.9271L49.0989 40.523C49.0043 40.192 49.0504 39.8366 49.2264 39.5407C50.7063 37.0522 51.4986 34.2097 51.4986 31.2481C51.4986 24.5201 47.3738 18.6063 41.3235 16.1712Z" fill="white"/>
</g>
<defs>
<filter id="filter0_d_163_43" x="0" y="0" width="58" height="57.9985" filterUnits="userSpaceOnUse" color-interpolation-filters="sRGB">
<feFlood flood-opacity="0" result="BackgroundImageFix"/>
<feColorMatrix in="SourceAlpha" type="matrix" values="0 0 0 0 0 0 0 0 0 0 0 0 0 0 0 0 0 0 127 0" result="hardAlpha"/>
<feOffset dy="4"/>
<feGaussianBlur stdDeviation="2"/>
<feComposite in2="hardAlpha" operator="out"/>
<feColorMatrix type="matrix" values="0 0 0 0 0 0 0 0 0 0 0 0 0 0 0 0 0 0 0.25 0"/>
<feBlend mode="normal" in2="BackgroundImageFix" result="effect1_dropShadow_163_43"/>
<feBlend mode="normal" in="SourceGraphic" in2="effect1_dropShadow_163_43" result="shape"/>
</filter>
</defs>
</svg>
