<svg width="101" height="100" viewBox="0 0 101 100" fill="none" xmlns="http://www.w3.org/2000/svg">
<path d="M89.4582 46.2497H51.2499V57.6247H78.3749C76.9999 73.4997 63.7916 80.2913 51.2916 80.2913C35.3333 80.2913 21.3333 67.708 21.3333 49.9997C21.3333 32.9163 34.6666 19.708 51.3333 19.708C64.2082 19.708 71.7499 27.9163 71.7499 27.9163L79.6666 19.6663C79.6666 19.6663 69.4999 8.33301 50.9166 8.33301C27.2499 8.33301 8.95825 28.333 8.95825 49.9997C8.95825 71.0413 26.1666 91.6663 51.5416 91.6663C73.8333 91.6663 90.0832 76.3747 90.0832 53.7913C90.0832 48.9997 89.4582 46.2497 89.4582 46.2497Z" fill="black"/>
</svg>
