<svg width="52" height="50" viewBox="0 0 52 50" fill="none" xmlns="http://www.w3.org/2000/svg">
<path d="M51.6114 49.5457H0.734375V47.324H51.6114V49.5457ZM27.2838 48.4349H25.0621V31.461H27.2838V48.4349ZM37.8813 48.4349H35.6595V31.461H37.8813V48.4349ZM6.06651 48.4349H3.84474V27.2175H6.06646L6.06651 48.4349ZM16.6862 48.4349H14.4645V31.461H16.6862V48.4349ZM48.501 48.4349H46.2794V27.2175H48.501V48.4349ZM51.6114 32.5719H0.734375V30.3502H51.6114V32.5719ZM4.95555 21.8855C6.73479 21.8855 8.1771 23.3278 8.1771 25.107C8.1771 26.8862 6.73479 28.3285 4.95555 28.3285C3.17641 28.3285 1.7341 26.8862 1.7341 25.107C1.7366 23.3288 3.17741 21.888 4.95535 21.8855H4.9556H4.95555ZM4.95555 26.1067C5.50776 26.1067 5.95538 25.6591 5.95538 25.107C5.95538 24.5548 5.50776 24.1072 4.9556 24.1072C4.40349 24.1072 3.95587 24.5548 3.95587 25.107C3.95712 25.6586 4.40404 26.1055 4.95555 26.1067ZM47.3902 21.8855C49.1694 21.8855 50.6117 23.3278 50.6117 25.107C50.6117 26.8862 49.1694 28.3285 47.3902 28.3285C45.611 28.3285 44.1687 26.8862 44.1687 25.107C44.1712 23.3288 45.612 21.888 47.39 21.8855H47.3902ZM47.3902 26.1067C47.9424 26.1067 48.39 25.6591 48.39 25.107C48.39 24.5548 47.9424 24.1072 47.3902 24.1072C46.8381 24.1072 46.3904 24.5548 46.3904 25.107C46.3917 25.6586 46.8386 26.1055 47.3901 26.1067H47.3902ZM26.1729 0.668213C33.8136 0.677045 40.0053 6.86874 40.0141 14.5086V32.5942H12.3317V14.5095C12.3405 6.86874 18.5322 0.677095 26.1721 0.668263L26.1729 0.668213ZM37.7925 30.3724V14.5095C37.7925 8.09212 32.5903 2.88988 26.1729 2.88988C19.7556 2.88988 14.5533 8.09212 14.5533 14.5095V30.3724H37.7925ZM27.2837 31.461H25.0621V1.77907H27.2837V31.461ZM38.9033 19.8638H13.4425V17.642H38.9033V19.8638Z" fill="black"/>
</svg>
