<svg width="100" height="100" viewBox="0 0 100 100" fill="none" xmlns="http://www.w3.org/2000/svg">
<mask id="mask0_140_115" style="mask-type:alpha" maskUnits="userSpaceOnUse" x="0" y="0" width="100" height="100">
<rect width="100" height="100" fill="#D9D9D9"/>
</mask>
<g mask="url(#mask0_140_115)">
<path d="M25.0001 91.6665C22.7084 91.6665 20.7466 90.8505 19.1147 89.2186C17.4827 87.5866 16.6667 85.6248 16.6667 83.3332V41.6665C16.6667 39.3748 17.4827 37.413 19.1147 35.7811C20.7466 34.1491 22.7084 33.3332 25.0001 33.3332H29.1667V24.9998C29.1667 19.2359 31.198 14.3228 35.2605 10.2603C39.323 6.19775 44.2362 4.1665 50.0001 4.1665C55.764 4.1665 60.6772 6.19775 64.7397 10.2603C68.8022 14.3228 70.8334 19.2359 70.8334 24.9998V33.3332H75.0001C77.2917 33.3332 79.2536 34.1491 80.8855 35.7811C82.5174 37.413 83.3334 39.3748 83.3334 41.6665V83.3332C83.3334 85.6248 82.5174 87.5866 80.8855 89.2186C79.2536 90.8505 77.2917 91.6665 75.0001 91.6665H25.0001ZM25.0001 83.3332H75.0001V41.6665H25.0001V83.3332ZM50.0001 70.8332C52.2917 70.8332 54.2536 70.0172 55.8855 68.3853C57.5174 66.7533 58.3334 64.7915 58.3334 62.4998C58.3334 60.2082 57.5174 58.2464 55.8855 56.6144C54.2536 54.9825 52.2917 54.1665 50.0001 54.1665C47.7084 54.1665 45.7466 54.9825 44.1147 56.6144C42.4827 58.2464 41.6667 60.2082 41.6667 62.4998C41.6667 64.7915 42.4827 66.7533 44.1147 68.3853C45.7466 70.0172 47.7084 70.8332 50.0001 70.8332ZM37.5001 33.3332H62.5001V24.9998C62.5001 21.5276 61.2848 18.5762 58.8542 16.1457C56.4237 13.7151 53.4723 12.4998 50.0001 12.4998C46.5279 12.4998 43.5765 13.7151 41.1459 16.1457C38.7154 18.5762 37.5001 21.5276 37.5001 24.9998V33.3332Z" fill="white"/>
</g>
</svg>
