<svg width="52" height="52" viewBox="0 0 52 52" fill="none" xmlns="http://www.w3.org/2000/svg">
<path d="M1.00195 18.8386H50.9988V23.8275H1.00195V18.8386Z" stroke="black" stroke-width="1.68294" stroke-miterlimit="10" stroke-linecap="round" stroke-linejoin="round"/>
<path d="M1.00195 18.1187V15.268C1.00195 14.092 2.09059 13.1299 3.42116 13.1299H14.5737" stroke="black" stroke-width="1.68294" stroke-miterlimit="10" stroke-linecap="round" stroke-linejoin="round"/>
<path d="M1.00195 28.125V1" stroke="black" stroke-width="1.68294" stroke-miterlimit="10" stroke-linecap="round" stroke-linejoin="round"/>
<path d="M50.998 8.17676V28.1321" stroke="black" stroke-width="1.68294" stroke-miterlimit="10" stroke-linecap="round" stroke-linejoin="round"/>
<path d="M13.4368 10.094C12.1385 9.24087 9.72414 8.99784 7.50411 8.95508C3.80919 8.96303 0.341661 9.90224 1.10694 12.7138" stroke="black" stroke-width="1.68294" stroke-miterlimit="10" stroke-linecap="round" stroke-linejoin="round"/>
<path d="M50.9998 18.8316V12.902C50.9998 11.726 49.9112 10.7639 48.5887 10.7632L17.2922 10.7622C15.9617 10.7622 14.873 11.7243 14.873 12.9003V18.6018" stroke="black" stroke-width="1.68294" stroke-miterlimit="10" stroke-linecap="round" stroke-linejoin="round"/>
<path d="M1.00195 41.7065H50.9988V46.6954H1.00195V41.7065Z" stroke="black" stroke-width="1.68294" stroke-miterlimit="10" stroke-linecap="round" stroke-linejoin="round"/>
<path d="M1.00195 40.9866V38.1359C1.00195 36.9599 2.09059 35.9978 3.42116 35.9978H14.5737" stroke="black" stroke-width="1.68294" stroke-miterlimit="10" stroke-linecap="round" stroke-linejoin="round"/>
<path d="M1.00195 50.9929V23.8679" stroke="black" stroke-width="1.68294" stroke-miterlimit="10" stroke-linecap="round" stroke-linejoin="round"/>
<path d="M50.832 23.8679L50.9967 51.0001" stroke="black" stroke-width="1.68294" stroke-miterlimit="10" stroke-linecap="round" stroke-linejoin="round"/>
<path d="M13.4368 32.9619C12.1385 32.1088 9.72414 31.8658 7.50411 31.823C3.80919 31.831 0.341661 32.7702 1.10694 35.5817" stroke="black" stroke-width="1.68294" stroke-miterlimit="10" stroke-linecap="round" stroke-linejoin="round"/>
<path d="M50.9998 41.6995V35.7699C50.9998 34.594 49.9112 33.6318 48.5887 33.6311L17.2922 33.6301C15.9617 33.6301 14.873 34.5923 14.873 35.7682V41.4697" stroke="black" stroke-width="1.68294" stroke-miterlimit="10" stroke-linecap="round" stroke-linejoin="round"/>
</svg>
