<svg width="50" height="50" viewBox="0 0 50 50" fill="none" xmlns="http://www.w3.org/2000/svg">
<path d="M2.08398 4.16675V47.9167H6.25065V43.7501H43.7506V47.9167H47.9173V14.5834C47.9173 9.97925 44.1881 6.25008 39.584 6.25008H20.834V16.6667H6.25065V4.16675M13.5423 4.16675C12.161 4.16675 10.8362 4.71548 9.85947 5.69223C8.88272 6.66899 8.33398 7.99375 8.33398 9.37508C8.33398 10.7564 8.88272 12.0812 9.85947 13.0579C10.8362 14.0347 12.161 14.5834 13.5423 14.5834C14.2263 14.5834 14.9036 14.4487 15.5355 14.187C16.1674 13.9252 16.7415 13.5416 17.2252 13.0579C17.7088 12.5743 18.0924 12.0001 18.3542 11.3682C18.6159 10.7363 18.7507 10.059 18.7507 9.37508C18.7507 7.99375 18.2019 6.66899 17.2252 5.69223C16.2484 4.71548 14.9237 4.16675 13.5423 4.16675ZM6.25065 22.9167H43.7506V28.2501C42.5215 27.5209 41.1048 27.0834 39.584 27.0834H20.834V37.5001H6.25065M13.5423 25.0001C12.161 25.0001 10.8362 25.5488 9.85947 26.5256C8.88272 27.5023 8.33398 28.8271 8.33398 30.2084C8.33398 31.5897 8.88272 32.9145 9.85947 33.8913C10.8362 34.868 12.161 35.4167 13.5423 35.4167C14.9237 35.4167 16.2484 34.868 17.2252 33.8913C18.2019 32.9145 18.7507 31.5897 18.7507 30.2084C18.7507 28.8271 18.2019 27.5023 17.2252 26.5256C16.2484 25.5488 14.9237 25.0001 13.5423 25.0001Z" fill="black"/>
</svg>
