<svg width="50" height="51" viewBox="0 0 50 51" fill="none" xmlns="http://www.w3.org/2000/svg">
<mask id="mask0_125_106" style="mask-type:alpha" maskUnits="userSpaceOnUse" x="0" y="0" width="50" height="51">
<rect y="0.5" width="50" height="50" fill="#D9D9D9"/>
</mask>
<g mask="url(#mask0_125_106)">
<path d="M8.33398 44.2499V24.7187L4.58398 27.5833L2.08398 24.2499L8.33398 19.4583V12.9999H12.5007V16.2812L25.0007 6.74992L47.9173 24.2499L45.4173 27.5312L41.6673 24.7187V44.2499H8.33398ZM12.5007 40.0833H22.9173V31.7499H27.084V40.0833H37.5006V21.5416L25.0007 12.0103L12.5007 21.5416V40.0833ZM8.33398 10.9166C8.33398 9.18047 8.94162 7.70478 10.1569 6.4895C11.3722 5.27422 12.8479 4.66659 14.584 4.66659C15.1743 4.66659 15.6691 4.46693 16.0684 4.06763C16.4677 3.66832 16.6673 3.17353 16.6673 2.58325H20.834C20.834 4.31936 20.2263 5.79506 19.0111 7.01034C17.7958 8.22561 16.3201 8.83325 14.584 8.83325C13.9937 8.83325 13.4989 9.03291 13.0996 9.43221C12.7003 9.83152 12.5007 10.3263 12.5007 10.9166H8.33398Z" fill="#1C1B1F"/>
</g>
</svg>
