<svg width="51" height="39" viewBox="0 0 51 39" fill="none" xmlns="http://www.w3.org/2000/svg">
<path d="M14.1679 0C8.61615 0 4.07526 4.50905 4.07526 10.0608V12.385C1.74313 12.974 0 15.1031 0 17.6064C0 19.8629 1.45659 21.7215 3.4385 22.5094L5.92186 28.9725L5.9537 29.0681H5.98554C6.23228 29.8322 6.65811 30.4371 7.16354 30.9147L5.38062 34.5124C4.66824 35.9331 5.23337 37.6842 6.65413 38.3966C7.06405 38.6035 7.52172 38.715 7.95949 38.715C9.02208 38.715 10.0648 38.1299 10.5702 37.1231L12.7989 32.6021H38.0782L40.3069 37.1231C40.8123 38.1299 41.855 38.715 42.9176 38.715C43.3554 38.715 43.813 38.6035 44.2229 38.3966C45.6437 37.6842 46.2088 35.9331 45.4965 34.5124L43.7135 30.9147C44.219 30.4371 44.6448 29.8322 44.8915 29.0681H44.9234L44.9552 28.9725L47.4386 22.5094C49.4205 21.7215 50.8771 19.8629 50.8771 17.6064C50.8771 15.1031 49.1339 12.974 46.8018 12.385V10.0608C46.8018 4.50905 42.2609 0 36.7092 0H14.1679ZM14.1679 2.03763H36.7092C41.1585 2.03763 44.7642 5.61144 44.7642 10.0608V12.2895C42.8221 12.5641 41.2222 13.8853 40.5297 15.6643H40.4979L38.8423 19.453C38.707 19.4092 38.6274 19.3774 38.4603 19.3256C37.6922 19.0948 36.6057 18.7924 35.3083 18.4979C32.7095 17.9089 29.2312 17.3199 25.5659 17.3199C21.9005 17.3199 18.3546 17.9049 15.6961 18.4979C14.3669 18.7924 13.2406 19.0908 12.4486 19.3256C12.2696 19.3774 12.178 19.4092 12.0348 19.453L10.4747 15.9508H10.4429C9.82201 14.0286 8.1545 12.58 6.11289 12.2895V10.0608C6.11289 5.61144 9.71854 2.03763 14.1679 2.03763ZM5.38062 14.2634C6.8969 14.2634 8.15848 15.2663 8.56441 16.6513V16.7149L8.59625 16.7786L10.5702 21.1404L11.0478 22.1911L11.9074 21.6498L12.0029 21.5861C12.0188 21.5742 12.0029 21.606 12.0348 21.5861C12.0745 21.5702 12.1064 21.5742 12.1621 21.5543C12.3651 21.4866 12.6476 21.3792 13.0217 21.2678C13.7739 21.0489 14.8604 20.7584 16.1418 20.4718C18.7008 19.9027 22.1194 19.3575 25.5659 19.3575C29.0123 19.3575 32.3673 19.9067 34.8626 20.4718C36.1082 20.7544 37.131 21.0489 37.8553 21.2678C38.2175 21.3792 38.52 21.4548 38.715 21.5225C38.8105 21.5543 38.8622 21.6021 38.906 21.618H38.9378L39.8293 22.1592L40.3069 21.1086L42.3763 16.4921V16.4602L42.4082 16.4284C42.8818 15.1628 44.0598 14.2634 45.4965 14.2634C47.347 14.2634 48.8394 15.7558 48.8394 17.6064C48.8394 19.1426 47.7967 20.4002 46.3879 20.7902L45.8785 20.9175L45.7193 21.3951L43.0131 28.3358V28.3676L42.9813 28.3995C42.6828 29.4382 41.8032 29.9754 40.8163 30.2779C39.9686 30.5406 39.296 30.5644 39.097 30.5644C38.8344 30.449 38.5319 30.449 38.2692 30.5644H12.576C12.3293 30.465 12.0586 30.465 11.8119 30.5644C11.6447 30.5644 10.9363 30.5485 10.0608 30.2779C9.07382 29.9754 8.1943 29.4382 7.89582 28.3995L7.86398 28.3676V28.304L5.15775 21.3951L4.99856 20.9175L4.48915 20.7902C3.07634 20.4002 2.03763 19.1426 2.03763 17.6064C2.03763 15.7558 3.53003 14.2634 5.38062 14.2634ZM8.91463 31.9972C9.09372 32.0688 9.28475 32.1683 9.45588 32.22C9.86579 32.3474 10.2478 32.419 10.602 32.4747L8.7236 36.1998C8.56839 36.5102 8.27787 36.6773 7.95949 36.6773C7.83214 36.6773 7.70479 36.6455 7.57744 36.5818C7.13966 36.3629 6.97649 35.8734 7.19538 35.4357L8.91463 31.9972ZM41.9624 31.9972L43.6817 35.4357C43.9006 35.8734 43.7374 36.3629 43.2996 36.5818C43.1723 36.6455 43.0449 36.6773 42.9176 36.6773C42.5992 36.6773 42.3087 36.5142 42.1535 36.1998L40.275 32.4747C40.6292 32.419 41.0113 32.3474 41.4212 32.22C41.5923 32.1683 41.7834 32.0688 41.9624 31.9972Z" fill="black"/>
</svg>
