<svg width="51" height="51" viewBox="0 0 51 51" fill="none" xmlns="http://www.w3.org/2000/svg">
<path d="M25.6124 28.7527C25.5658 28.7527 25.4961 28.7527 25.4496 28.7527C25.3798 28.7527 25.2868 28.7527 25.217 28.7527C19.9379 28.5899 15.9844 24.4736 15.9844 19.4038C15.9844 14.241 20.1937 10.0317 25.3565 10.0317C30.5193 10.0317 34.7286 14.241 34.7286 19.4038C34.7054 24.4969 30.7286 28.5899 25.6821 28.7527C25.6356 28.7527 25.6356 28.7527 25.6124 28.7527ZM25.3333 13.4969C22.0775 13.4969 19.4495 16.148 19.4495 19.3806C19.4495 22.5667 21.9379 25.1481 25.1007 25.2643C25.1705 25.2411 25.403 25.2411 25.6356 25.2643C28.7519 25.1016 31.1937 22.5434 31.217 19.3806C31.217 16.148 28.5891 13.4969 25.3333 13.4969Z" fill="white"/>
<path d="M25.3338 50.1947C19.078 50.1947 13.1012 47.8691 8.47332 43.6366C8.05472 43.2645 7.86867 42.7063 7.91518 42.1715C8.21751 39.404 9.93844 36.8226 12.7989 34.9156C19.7291 30.311 30.9617 30.311 37.8686 34.9156C40.7291 36.8459 42.45 39.404 42.7524 42.1715C42.8221 42.7296 42.6128 43.2645 42.1942 43.6366C37.5663 47.8691 31.5896 50.1947 25.3338 50.1947ZM11.5663 41.7063C15.4268 44.9389 20.2873 46.7063 25.3338 46.7063C30.3803 46.7063 35.2407 44.9389 39.1012 41.7063C38.6826 40.2877 37.5663 38.9156 35.9152 37.7994C30.1942 33.9854 20.4966 33.9854 14.7291 37.7994C13.078 38.9156 11.9849 40.2877 11.5663 41.7063Z" fill="white"/>
<path d="M25.332 50.1946C11.5413 50.1946 0.332031 38.9853 0.332031 25.1946C0.332031 11.4039 11.5413 0.19458 25.332 0.19458C39.1227 0.19458 50.332 11.4039 50.332 25.1946C50.332 38.9853 39.1227 50.1946 25.332 50.1946ZM25.332 3.68295C13.4716 3.68295 3.8204 13.3341 3.8204 25.1946C3.8204 37.055 13.4716 46.7062 25.332 46.7062C37.1925 46.7062 46.8437 37.055 46.8437 25.1946C46.8437 13.3341 37.1925 3.68295 25.332 3.68295Z" fill="white"/>
</svg>
