<svg width="101" height="101" viewBox="0 0 101 101" fill="none" xmlns="http://www.w3.org/2000/svg">
<path d="M51.0605 57.6163C50.9675 57.6163 50.828 57.6163 50.735 57.6163C50.5954 57.6163 50.4094 57.6163 50.2699 57.6163C39.7116 57.2907 31.8047 49.0582 31.8047 38.9186C31.8047 28.5931 40.2233 20.1745 50.5489 20.1745C60.8745 20.1745 69.293 28.5931 69.293 38.9186C69.2465 49.1047 61.2931 57.2907 51.2001 57.6163C51.1071 57.6163 51.1071 57.6163 51.0605 57.6163ZM50.5024 27.1047C43.9908 27.1047 38.7349 32.407 38.7349 38.8721C38.7349 45.2442 43.7117 50.407 50.0373 50.6396C50.1768 50.5931 50.6419 50.5931 51.1071 50.6396C57.3396 50.314 62.2233 45.1977 62.2698 38.8721C62.2698 32.407 57.014 27.1047 50.5024 27.1047Z" fill="#292D32"/>
<path d="M50.5033 100.5C37.9918 100.5 26.0383 95.8487 16.7826 87.3836C15.9454 86.6394 15.5733 85.5231 15.6663 84.4534C16.2709 78.9185 19.7128 73.7557 25.4337 69.9418C39.2941 60.7325 61.7591 60.7325 75.573 69.9418C81.2939 73.8022 84.7357 78.9185 85.3404 84.4534C85.4799 85.5696 85.0613 86.6394 84.2241 87.3836C74.9683 95.8487 63.0149 100.5 50.5033 100.5ZM22.9686 83.5231C30.6895 89.9882 40.4104 93.5231 50.5033 93.5231C60.5963 93.5231 70.3172 89.9882 78.0381 83.5231C77.2009 80.6859 74.9683 77.9418 71.666 75.7092C60.2242 68.0813 40.829 68.0813 29.2941 75.7092C25.9918 77.9418 23.8058 80.6859 22.9686 83.5231Z" fill="#292D32"/>
<path d="M50.4998 100.5C22.9185 100.5 0.5 78.081 0.5 50.4998C0.5 22.9185 22.9185 0.5 50.4998 0.5C78.081 0.5 100.5 22.9185 100.5 50.4998C100.5 78.081 78.081 100.5 50.4998 100.5ZM50.4998 7.47671C26.779 7.47671 7.47671 26.779 7.47671 50.4998C7.47671 74.2206 26.779 93.5228 50.4998 93.5228C74.2206 93.5228 93.5228 74.2206 93.5228 50.4998C93.5228 26.779 74.2206 7.47671 50.4998 7.47671Z" fill="#292D32"/>
</svg>
