<svg width="50" height="51" viewBox="0 0 50 51" fill="none" xmlns="http://www.w3.org/2000/svg">
<mask id="mask0_125_114" style="mask-type:alpha" maskUnits="userSpaceOnUse" x="0" y="0" width="50" height="51">
<rect y="0.5" width="50" height="50" fill="#D9D9D9"/>
</mask>
<g mask="url(#mask0_125_114)">
<path d="M10.418 35.9165H13.543V32.7915H36.4596V35.9165H39.5846V27.8957C39.5846 27.1665 39.4458 26.4807 39.168 25.8384C38.8902 25.196 38.5082 24.6318 38.0221 24.1457V19.2498C38.0221 18.104 37.6142 17.1231 36.7982 16.3071C35.9822 15.4912 35.0013 15.0832 33.8555 15.0832H27.0846C26.7027 15.0832 26.3381 15.1353 25.9909 15.2394C25.6437 15.3436 25.3138 15.4998 25.0013 15.7082C24.6888 15.4998 24.3589 15.3436 24.0117 15.2394C23.6645 15.1353 23.2999 15.0832 22.918 15.0832H16.1471C15.0013 15.0832 14.0204 15.4912 13.2044 16.3071C12.3885 17.1231 11.9805 18.104 11.9805 19.2498V24.1457C11.4944 24.6318 11.1124 25.196 10.8346 25.8384C10.5569 26.4807 10.418 27.1665 10.418 27.8957V35.9165ZM13.543 29.6665V27.5832C13.543 26.9929 13.7426 26.4981 14.1419 26.0988C14.5412 25.6995 15.036 25.4998 15.6263 25.4998H34.3763C34.9666 25.4998 35.4614 25.6995 35.8607 26.0988C36.26 26.4981 36.4596 26.9929 36.4596 27.5832V29.6665H13.543ZM15.1055 22.3748V18.2082H23.4388V22.3748H15.1055ZM26.5638 22.3748V18.2082H34.8971V22.3748H26.5638ZM8.33464 46.3332C7.1888 46.3332 6.2079 45.9252 5.39193 45.1092C4.57595 44.2932 4.16797 43.3123 4.16797 42.1665V8.83317C4.16797 7.68734 4.57595 6.70643 5.39193 5.89046C6.2079 5.07449 7.1888 4.6665 8.33464 4.6665H41.668C42.8138 4.6665 43.7947 5.07449 44.6107 5.89046C45.4267 6.70643 45.8346 7.68734 45.8346 8.83317V42.1665C45.8346 43.3123 45.4267 44.2932 44.6107 45.1092C43.7947 45.9252 42.8138 46.3332 41.668 46.3332H8.33464ZM8.33464 42.1665H41.668V8.83317H8.33464V42.1665Z" fill="#1C1B1F"/>
</g>
</svg>
