<svg width="25" height="25" viewBox="0 0 25 25" fill="none" xmlns="http://www.w3.org/2000/svg">
<mask id="mask0_130_59" style="mask-type:alpha" maskUnits="userSpaceOnUse" x="0" y="0" width="25" height="25">
<rect x="0.357422" y="0.839111" width="24" height="24" fill="#D9D9D9"/>
</mask>
<g mask="url(#mask0_130_59)">
<path d="M4.35742 21.8391V19.8391C3.80742 19.8391 3.33659 19.6433 2.94492 19.2516C2.55326 18.8599 2.35742 18.3891 2.35742 17.8391V6.83911C2.35742 6.28911 2.55326 5.81828 2.94492 5.42661C3.33659 5.03494 3.80742 4.83911 4.35742 4.83911H20.3574C20.9074 4.83911 21.3783 5.03494 21.7699 5.42661C22.1616 5.81828 22.3574 6.28911 22.3574 6.83911V17.8391C22.3574 18.3891 22.1616 18.8599 21.7699 19.2516C21.3783 19.6433 20.9074 19.8391 20.3574 19.8391V21.8391H19.3574L18.7074 19.8391H6.03242L5.35742 21.8391H4.35742ZM4.35742 17.8391H20.3574V6.83911H4.35742V17.8391Z" fill="#1C1B1F"/>
</g>
</svg>
