<svg width="44" height="50" viewBox="0 0 44 50" fill="none" xmlns="http://www.w3.org/2000/svg">
<path fill-rule="evenodd" clip-rule="evenodd" d="M13.595 34.3524C13.4865 34.3512 13.3762 34.3634 13.2666 34.3901C6.67622 35.9977 0 39.2757 0 44.207V49.9999H43.9024V44.207C43.9024 39.2757 37.2262 35.9977 30.6359 34.3901C30.5262 34.3634 30.416 34.3512 30.3074 34.3524L21.9512 43.9024L13.595 34.3524ZM35.3659 41.8698C35.3659 41.8698 33.7399 41.0569 32.9268 40.2438C32.1138 41.0569 30.4878 41.8698 30.4878 41.8698C30.4878 41.8698 31.3394 45.1219 32.9268 45.1219C34.5143 45.1219 35.3659 41.8698 35.3659 41.8698Z" fill="#333333"/>
<path d="M23.7804 31.7073H20.1219C19.4483 31.7073 18.9023 32.2533 18.9023 32.9268V34.8607C18.9023 35.1841 19.0309 35.4943 19.2595 35.723L20.1219 36.5853L18.9023 40.8536L21.9511 46.9512L24.9999 40.8536L23.7804 35.9756L24.3258 35.7029C24.7389 35.4963 24.9999 35.074 24.9999 34.6122V32.9268C24.9999 32.2533 24.4539 31.7073 23.7804 31.7073Z" fill="#333333"/>
<path fill-rule="evenodd" clip-rule="evenodd" d="M10.9746 18.2928V14.6343H13.4136V18.2928C13.4136 23.0074 17.2356 26.8294 21.9502 26.8294C26.6649 26.8294 30.4868 23.0074 30.4868 18.2928V14.6343H32.9258V18.2928C32.9258 24.3545 28.0119 29.2684 21.9502 29.2684C15.8885 29.2684 10.9746 24.3545 10.9746 18.2928Z" fill="#333333"/>
<path fill-rule="evenodd" clip-rule="evenodd" d="M9.37543 10.9756C9.28275 10.8296 9.18824 10.6829 9.09324 10.5351C8.2297 9.19378 7.31641 7.77545 7.31641 6.21557C7.31641 5.23899 7.95092 4.41666 8.7908 3.76644C11.9127 1.34952 21.9506 0 21.9506 0C21.9506 0 31.9884 1.34954 35.1103 3.76644C35.9502 4.41666 36.5847 5.23899 36.5847 6.21557C36.5847 7.994 35.5776 9.52963 34.6221 10.9756H9.37543ZM19.5115 6.09756C19.5115 4.75052 20.6035 3.65854 21.9506 3.65854C23.2976 3.65854 24.3896 4.75052 24.3896 6.09756C24.3896 7.4446 23.2976 8.53659 21.9506 8.53659C20.6035 8.53659 19.5115 7.4446 19.5115 6.09756Z" fill="#333333"/>
<path fill-rule="evenodd" clip-rule="evenodd" d="M9.78193 13.9155C9.83729 13.6255 10.1028 13.4148 10.4127 13.4148H33.4892C33.7991 13.4148 34.0646 13.6255 34.12 13.9155L34.1202 13.917L34.1206 13.9185L34.1212 13.922L34.1227 13.9303L34.1262 13.9525C34.1288 13.9697 34.1317 13.9917 34.1345 14.0182C34.1401 14.0713 34.1452 14.1425 34.146 14.2292C34.1474 14.4027 34.1314 14.6402 34.0657 14.9198C33.9328 15.485 33.6013 16.2036 32.8422 16.9019C31.3372 18.2863 28.2451 19.5124 21.9509 19.5124C15.6568 19.5124 12.5647 18.2863 11.0597 16.9019C10.3006 16.2036 9.96912 15.485 9.83619 14.9198C9.77046 14.6402 9.75449 14.4027 9.75595 14.2292C9.75668 14.1425 9.7618 14.0713 9.76741 14.0182C9.77022 13.9917 9.77314 13.9697 9.77571 13.9525L9.77924 13.9303L9.78071 13.922L9.78131 13.9185L9.78168 13.917L9.78193 13.9155Z" fill="#333333"/>
</svg>
