<svg width="53" height="53" viewBox="0 0 53 53" fill="none" xmlns="http://www.w3.org/2000/svg">
<path d="M26.0867 52.1733H10.4347C10.4347 50.7896 10.9843 49.4626 11.9628 48.4841C12.9412 47.5057 14.2683 46.956 15.652 46.956V15.652H0V7.826H36.5213V15.652H20.8693V46.956C22.2531 46.956 23.5801 47.5057 24.5585 48.4841C25.537 49.4626 26.0867 50.7896 26.0867 52.1733ZM52.1733 0V52.1733H46.956V33.9127H33.9127V52.1733H28.6953V31.304C28.6953 29.9203 29.245 28.5932 30.2235 27.6148C31.2019 26.6364 32.5289 26.0867 33.9127 26.0867H46.956V0H52.1733Z" fill="black"/>
</svg>
