<svg width="100" height="100" viewBox="0 0 100 100" fill="none" xmlns="http://www.w3.org/2000/svg">
<mask id="mask0_140_111" style="mask-type:alpha" maskUnits="userSpaceOnUse" x="0" y="0" width="100" height="100">
<rect width="100" height="100" fill="#D9D9D9"/>
</mask>
<g mask="url(#mask0_140_111)">
<path d="M24.3749 71.2502C27.9166 68.5418 31.8749 66.4064 36.2499 64.8439C40.6249 63.2814 45.2083 62.5002 49.9999 62.5002C54.7916 62.5002 59.3749 63.2814 63.7499 64.8439C68.1249 66.4064 72.0833 68.5418 75.6249 71.2502C78.0555 68.4029 79.9478 65.1738 81.302 61.5627C82.6562 57.9516 83.3333 54.0974 83.3333 50.0002C83.3333 40.7641 80.0867 32.8995 73.5937 26.4064C67.1006 19.9134 59.236 16.6668 49.9999 16.6668C40.7638 16.6668 32.8992 19.9134 26.4062 26.4064C19.9131 32.8995 16.6666 40.7641 16.6666 50.0002C16.6666 54.0974 17.3437 57.9516 18.6978 61.5627C20.052 65.1738 21.9444 68.4029 24.3749 71.2502ZM49.9999 54.1668C45.9027 54.1668 42.4478 52.7606 39.6353 49.9481C36.8228 47.1356 35.4166 43.6807 35.4166 39.5835C35.4166 35.4863 36.8228 32.0314 39.6353 29.2189C42.4478 26.4064 45.9027 25.0002 49.9999 25.0002C54.0971 25.0002 57.552 26.4064 60.3645 29.2189C63.177 32.0314 64.5833 35.4863 64.5833 39.5835C64.5833 43.6807 63.177 47.1356 60.3645 49.9481C57.552 52.7606 54.0971 54.1668 49.9999 54.1668ZM49.9999 91.6668C44.236 91.6668 38.8194 90.5731 33.7499 88.3856C28.6805 86.1981 24.2708 83.2293 20.5208 79.4793C16.7708 75.7293 13.802 71.3196 11.6145 66.2502C9.427 61.1807 8.33325 55.7641 8.33325 50.0002C8.33325 44.2363 9.427 38.8196 11.6145 33.7502C13.802 28.6807 16.7708 24.271 20.5208 20.521C24.2708 16.771 28.6805 13.8022 33.7499 11.6147C38.8194 9.42725 44.236 8.3335 49.9999 8.3335C55.7638 8.3335 61.1805 9.42725 66.2499 11.6147C71.3194 13.8022 75.7291 16.771 79.4791 20.521C83.2291 24.271 86.1978 28.6807 88.3853 33.7502C90.5728 38.8196 91.6666 44.2363 91.6666 50.0002C91.6666 55.7641 90.5728 61.1807 88.3853 66.2502C86.1978 71.3196 83.2291 75.7293 79.4791 79.4793C75.7291 83.2293 71.3194 86.1981 66.2499 88.3856C61.1805 90.5731 55.7638 91.6668 49.9999 91.6668ZM49.9999 83.3335C53.6805 83.3335 57.1527 82.7953 60.4166 81.7189C63.6805 80.6425 66.6666 79.0974 69.3749 77.0835C66.6666 75.0696 63.6805 73.5245 60.4166 72.4481C57.1527 71.3717 53.6805 70.8335 49.9999 70.8335C46.3194 70.8335 42.8471 71.3717 39.5833 72.4481C36.3194 73.5245 33.3333 75.0696 30.6249 77.0835C33.3333 79.0974 36.3194 80.6425 39.5833 81.7189C42.8471 82.7953 46.3194 83.3335 49.9999 83.3335ZM49.9999 45.8335C51.8055 45.8335 53.2985 45.2432 54.4791 44.0627C55.6596 42.8821 56.2499 41.3891 56.2499 39.5835C56.2499 37.7779 55.6596 36.2849 54.4791 35.1043C53.2985 33.9238 51.8055 33.3335 49.9999 33.3335C48.1944 33.3335 46.7013 33.9238 45.5208 35.1043C44.3402 36.2849 43.7499 37.7779 43.7499 39.5835C43.7499 41.3891 44.3402 42.8821 45.5208 44.0627C46.7013 45.2432 48.1944 45.8335 49.9999 45.8335Z" fill="white"/>
</g>
</svg>
